:SAMPLES-PER-SECOND 30
:FULLY-SPECIFIED
:DEGREES
203
root  61.6954 35.3176 21.5726 -144.284 6.86191 176.753
RightUpLeg  -80.5749 -25.497 33.2415
RightLeg  47.0181 -3.70809 -4.59332
RightFoot  -12.3532 -0.178155 -10.7124
RightToes  0.000482159 0.542163 -0.142577
Spine  67.9564 -4.42935 6.92089
Spine1  6.57567 0.231125 -1.94474
HEad  -37.9621 0.648923 -11.9228
LeftShoulder1  5.83979 -25.3249 -13.1162
LeftArm  -74.6624 -76.0131 13.974
LeftForeArm  -6.33659 -10.2402 -0.608853
LeftHand  -0.25398 0.0180481 5.50724
RightShoulder  1.57368 10.6833 3.05865
RightArm  -69.2295 60.8517 -15.005
RightForeArm  -17.6031 9.91778 3.09279
RightHand  -0.332276 10.7708 -2.91294
LeftUpLeg  -78.1099 20.2879 -27.463
LeftLeg  42.1977 1.38199 1.74192
LeftFoot  -4.28067 -0.42706 7.33004
LeftToes  1.06248e-005 4.65855e-005 -8.18498e-006
204
root  61.9131 35.2343 21.4788 -143.69 6.72597 176.452
RightUpLeg  -81.1333 -25.009 33.221
RightLeg  47.5711 -4.00852 -5.03027
RightFoot  -13.0637 -0.248487 -10.6285
RightToes  0.000482159 0.542163 -0.142577
Spine  68.5253 -4.34676 6.16048
Spine1  6.49353 -0.236934 -1.82279
HEad  -38.0506 1.05972 -11.8428
LeftShoulder1  5.47846 -24.9464 -12.0259
LeftArm  -78.5939 -74.8565 18.322
LeftForeArm  -7.57128 -10.8458 -0.419928
LeftHand  -0.25398 0.0180481 5.50724
RightShoulder  1.3948 10.7386 1.58342
RightArm  -70.6675 60.8951 -15.7786
RightForeArm  -19.3574 10.6514 3.12285
RightHand  -0.394728 10.2903 -3.43806
LeftUpLeg  -79.0074 20.5089 -28.1822
LeftLeg  42.6082 0.736327 1.12827
LeftFoot  -4.44549 -0.402133 7.11005
LeftToes  1.06248e-005 4.65855e-005 -8.18498e-006
205
root  62.0989 35.1697 21.3826 -143.122 6.55573 176.214
RightUpLeg  -81.5202 -24.5756 33.2991
RightLeg  47.8103 -4.40525 -5.53491
RightFoot  -13.8648 -0.334007 -10.8821
RightToes  0.000482159 0.542163 -0.142577
Spine  68.8619 -4.34813 5.6009
Spine1  6.37647 -0.612351 -1.79971
HEad  -38.1291 1.30411 -11.5463
LeftShoulder1  5.26808 -24.4284 -11.6001
LeftArm  -82.4421 -74.0082 22.7708
LeftForeArm  -8.21741 -11.4008 -0.381595
LeftHand  -0.25398 0.0180481 5.50724
RightShoulder  1.1921 10.6622 0.0158011
RightArm  -72.0153 60.9057 -16.5821
RightForeArm  -20.9956 11.0928 3.10945
RightHand  -0.399824 9.64362 -3.58954
LeftUpLeg  -79.79 20.625 -28.7519
LeftLeg  42.9319 0.257271 0.661126
LeftFoot  -4.48298 -0.379529 6.77749
LeftToes  1.06248e-005 4.65855e-005 -8.18498e-006
206
root  62.2517 35.1419 21.2945 -142.665 6.39517 176.04
RightUpLeg  -81.727 -24.2308 33.3317
RightLeg  47.8775 -4.74558 -5.94533
RightFoot  -14.4309 -0.401457 -11.2413
RightToes  0.000482159 0.542163 -0.142577
Spine  69.1412 -4.39639 5.30959
Spine1  6.3508 -0.771047 -1.98437
HEad  -38.1078 1.37319 -11.3075
LeftShoulder1  5.13426 -23.8496 -11.5085
LeftArm  -86.386 -73.7419 27.1216
LeftForeArm  -8.2304 -11.9495 -0.471233
LeftHand  -0.25398 0.0180481 5.50724
RightShoulder  1.01824 10.338 -1.18972
RightArm  -73.5835 60.8902 -17.7453
RightForeArm  -21.9273 11.1167 2.95702
RightHand  -0.343042 8.90791 -3.27348
LeftUpLeg  -80.2781 20.622 -29.0555
LeftLeg  43.0732 -0.00849863 0.396997
LeftFoot  -4.41261 -0.382502 6.75004
LeftToes  1.06248e-005 4.65855e-005 -8.18498e-006
207
root  62.3791 35.1468 21.2079 -142.314 6.30508 175.913
RightUpLeg  -81.8402 -23.9871 33.3114
RightLeg  47.9187 -4.89516 -6.12866
RightFoot  -14.6857 -0.437522 -11.5542
RightToes  0.000482159 0.542163 -0.142577
Spine  69.3301 -4.35687 5.27266
Spine1  6.58068 -0.641192 -2.27483
HEad  -38.0483 1.04125 -11.2177
LeftShoulder1  4.95361 -23.5764 -10.9868
LeftArm  -90.0233 -73.7607 30.6178
LeftForeArm  -8.10504 -12.4558 -0.509211
LeftHand  -0.25398 0.0180481 5.50724
RightShoulder  0.896329 9.62262 -1.7929
RightArm  -75.6532 60.9031 -19.3775
RightForeArm  -22.0742 10.8573 2.64853
RightHand  -0.256977 8.31461 -2.65582
LeftUpLeg  -80.4852 20.5327 -29.0708
LeftLeg  43.0471 -0.0550283 0.350172
LeftFoot  -4.3207 -0.38387 6.67542
LeftToes  1.06248e-005 4.65855e-005 -8.18498e-006
208
root  62.4866 35.1584 21.1168 -141.985 6.26825 175.869
RightUpLeg  -81.9746 -23.826 33.4412
RightLeg  47.9735 -4.87768 -6.11986
RightFoot  -14.8047 -0.452297 -11.6162
RightToes  0.000482159 0.542163 -0.142577
Spine  69.5735 -4.16512 5.21993
Spine1  6.54173 -0.47364 -2.24698
HEad  -37.9155 0.67306 -11.3348
LeftShoulder1  4.84 -23.0239 -10.9434
LeftArm  -93.6296 -74.2712 33.8959
LeftForeArm  -7.86747 -12.7652 -0.590945
LeftHand  -0.25398 0.0180481 5.50724
RightShoulder  0.769339 8.85512 -2.47899
RightArm  -77.7055 61.0698 -20.4637
RightForeArm  -21.7498 10.5336 2.23176
RightHand  -0.171116 7.91176 -1.96563
LeftUpLeg  -80.6177 20.3966 -28.8316
LeftLeg  43.0294 0.0368095 0.441953
LeftFoot  -4.2756 -0.358838 6.22351
LeftToes  1.06248e-005 4.65855e-005 -8.18498e-006
209
root  62.572 35.1642 21.0291 -141.693 6.2468 175.842
RightUpLeg  -82.1408 -23.7372 33.6517
RightLeg  48.0423 -4.82335 -6.07047
RightFoot  -14.8902 -0.453585 -11.3598
RightToes  0.000482159 0.542163 -0.142577
Spine  69.6799 -4.04653 5.19994
Spine1  6.48823 -0.305981 -2.35875
HEad  -37.7866 0.329066 -11.2739
LeftShoulder1  4.7105 -22.2586 -10.9963
LeftArm  -97.5954 -75.2293 36.9949
LeftForeArm  -7.15006 -12.9119 -0.57191
LeftHand  -0.25398 0.0180481 5.50724
RightShoulder  0.683787 8.18384 -2.90642
RightArm  -79.4528 61.2472 -21.3191
RightForeArm  -21.491 10.2836 1.87507
RightHand  -0.0957072 7.53124 -1.32381
LeftUpLeg  -80.7589 20.3051 -28.608
LeftLeg  43.0892 0.0337079 0.439243
LeftFoot  -4.25419 -0.333934 5.80307
LeftToes  1.06248e-005 4.65855e-005 -8.18498e-006
210
root  62.6337 35.171 20.949 -141.501 6.2225 175.716
RightUpLeg  -82.2806 -23.703 33.6417
RightLeg  48.162 -4.83419 -6.10848
RightFoot  -14.9315 -0.447799 -11.0377
RightToes  0.000482159 0.542163 -0.142577
Spine  69.7624 -4.09705 5.1426
Spine1  6.46536 -0.3036 -2.65226
HEad  -37.6319 0.238178 -11.143
LeftShoulder1  4.52087 -21.6298 -10.6766
LeftArm  -100.503 -75.8812 38.904
LeftForeArm  -6.46353 -12.9787 -0.425793
LeftHand  -0.25398 0.0180481 5.50724
RightShoulder  0.629438 7.74618 -3.19901
RightArm  -80.7158 61.371 -21.8283
RightForeArm  -21.3139 10.1334 1.59985
RightHand  -0.0297721 7.07077 -0.729918
LeftUpLeg  -80.8325 20.3021 -28.6573
LeftLeg  43.1321 -0.170322 0.234904
LeftFoot  -4.20237 -0.335432 5.77907
LeftToes  1.06248e-005 4.65855e-005 -8.18498e-006
211
root  62.6792 35.1817 20.8692 -141.372 6.19279 175.553
RightUpLeg  -82.3438 -23.6461 33.4084
RightLeg  48.3166 -4.93628 -6.26277
RightFoot  -14.9657 -0.446293 -10.8799
RightToes  0.000482159 0.542163 -0.142577
Spine  69.8722 -4.21092 5.07101
Spine1  6.42238 -0.447011 -2.92305
HEad  -37.4648 0.387185 -11.1491
LeftShoulder1  4.35047 -21.5778 -9.96862
LeftArm  -100.674 -75.6444 38.7111
LeftForeArm  -6.46744 -12.9972 -0.252337
LeftHand  -0.25398 0.0180481 5.50724
RightShoulder  0.592418 7.54138 -3.46389
RightArm  -81.4932 61.3993 -21.9717
RightForeArm  -21.1244 10.1147 1.40067
RightHand  0.0190637 6.58837 -0.255611
LeftUpLeg  -80.8621 20.3701 -28.8969
LeftLeg  43.1262 -0.422169 -0.0182932
LeftFoot  -4.15167 -0.343699 5.87309
LeftToes  1.06248e-005 4.65855e-005 -8.18498e-006
212
root  62.7175 35.1896 20.7886 -141.23 6.17374 175.558
RightUpLeg  -82.2841 -23.4897 33.2556
RightLeg  48.403 -5.08878 -6.46319
RightFoot  -15.0511 -0.452143 -10.7923
RightToes  0.000482159 0.542163 -0.142577
Spine  69.9226 -4.21543 5.0571
Spine1  6.37091 -0.502556 -3.04837
HEad  -37.4274 0.601796 -11.2431
LeftShoulder1  4.30803 -22.0416 -9.42768
LeftArm  -98.9501 -74.9141 37.3219
LeftForeArm  -6.80012 -13.1242 -0.248717
LeftHand  -0.25398 0.0180481 5.50724
RightShoulder  0.571383 7.38798 -3.59858
RightArm  -81.8894 61.3628 -22.0714
RightForeArm  -21.08 10.2603 1.34287
RightHand  0.0276989 6.16789 -0.14911
LeftUpLeg  -80.9989 20.5486 -29.0866
LeftLeg  43.1857 -0.601273 -0.199703
LeftFoot  -4.19222 -0.337337 5.7971
LeftToes  1.06248e-005 4.65855e-005 -8.18498e-006
213
root  62.7471 35.1924 20.7154 -141.102 6.16739 175.749
RightUpLeg  -82.1155 -23.3065 33.3036
RightLeg  48.3911 -5.19606 -6.5879
RightFoot  -15.1617 -0.459093 -10.6654
RightToes  0.000482159 0.542163 -0.142577
Spine  69.8483 -4.08618 5.09827
Spine1  6.45402 -0.357897 -3.07299
HEad  -37.6543 0.766971 -11.2275
LeftShoulder1  4.35523 -22.5993 -9.2217
LeftArm  -97.0437 -74.3699 35.7359
LeftForeArm  -6.83134 -13.5519 -0.476447
LeftHand  -0.25398 0.0180481 5.50724
RightShoulder  0.566075 7.0874 -3.48477
RightArm  -82.2018 61.3759 -22.5153
RightForeArm  -21.3623 10.5036 1.43858
RightHand  -0.00161396 5.80969 -0.430484
LeftUpLeg  -81.2388 20.8351 -29.1555
LeftLeg  43.3684 -0.750992 -0.354405
LeftFoot  -4.32343 -0.324749 5.71709
LeftToes  1.06248e-005 4.65855e-005 -8.18498e-006
214
root  62.7575 35.1966 20.6498 -141.061 6.14175 175.888
RightUpLeg  -81.9673 -23.2769 33.3619
RightLeg  48.3972 -5.19155 -6.58361
RightFoot  -15.2388 -0.465539 -10.6276
RightToes  0.000482159 0.542163 -0.142577
Spine  69.735 -4.00058 5.13594
Spine1  6.65892 -0.203679 -3.12405
HEad  -38.0129 0.861129 -11.0443
LeftShoulder1  4.35787 -23.0326 -8.92505
LeftArm  -95.1979 -74.0816 33.7143
LeftForeArm  -6.78855 -14.129 -0.743259
LeftHand  -0.25398 0.0180481 5.50724
RightShoulder  0.572344 6.71292 -3.19146
RightArm  -82.6799 61.5072 -23.2444
RightForeArm  -21.8338 10.6572 1.55174
RightHand  -0.0163871 5.41358 -0.573112
LeftUpLeg  -81.3349 21.0065 -29.1221
LeftLeg  43.5531 -0.822928 -0.431373
LeftFoot  -4.43721 -0.32184 5.77367
LeftToes  1.06248e-005 4.65855e-005 -8.18498e-006
215
root  62.7459 35.2076 20.5832 -141.097 6.10544 175.809
RightUpLeg  -81.9418 -23.4235 33.244
RightLeg  48.5088 -5.14577 -6.55449
RightFoot  -15.274 -0.473223 -10.7482
RightToes  0.000482159 0.542163 -0.142577
Spine  69.7366 -4.10574 5.1299
Spine1  6.74831 -0.23037 -3.32978
HEad  -38.1948 0.8639 -10.8042
LeftShoulder1  4.32949 -23.2763 -8.63715
LeftArm  -93.5547 -73.9963 31.7247
LeftForeArm  -7.07246 -14.4538 -0.885222
LeftHand  -0.25398 0.0180481 5.50724
RightShoulder  0.587041 6.52189 -2.90254
RightArm  -83.1834 61.6949 -23.8571
RightForeArm  -22.1913 10.5642 1.55571
RightHand  0.0190315 4.83371 -0.154208
LeftUpLeg  -81.1258 20.8426 -28.946
LeftLeg  43.6217 -0.64218 -0.248394
LeftFoot  -4.46978 -0.319621 5.77424
LeftToes  1.06248e-005 4.65855e-005 -8.18498e-006
